<svg width="32" height="32" viewBox="0 0 32 32" fill="none" xmlns="http://www.w3.org/2000/svg">
<circle cx="16" cy="16" r="16" fill="white"/>
<path fill-rule="evenodd" clip-rule="evenodd" d="M16.0399 26H15.9601C11.9894 26 9.6672 25.6001 8.04963 24.0148C6.38446 22.3164 6 20.0109 6 16.0559V15.9441C6 11.9891 6.38446 9.66698 8.04963 7.98524C9.68268 6.3999 11.9894 6 15.9613 6H16.0411C19.9963 6 22.3185 6.3999 23.9504 7.98524C25.6155 9.68365 26 11.9891 26 15.9441V16.0559C26 20.0121 25.6155 22.333 23.9504 24.0148C22.3173 25.6001 20.0118 26 16.0399 26ZM23.4826 15.706C23.5588 15.7096 23.6207 15.7727 23.6207 15.8488H23.6195V16.1678C23.6195 16.2452 23.5576 16.3083 23.4814 16.3106C20.7474 16.4142 19.0846 16.7617 17.9193 17.9269C16.7552 19.0909 16.4077 20.7512 16.3029 23.4804C16.2994 23.5565 16.2363 23.6184 16.1601 23.6184H15.8399C15.7625 23.6184 15.6995 23.5565 15.6971 23.4804C15.5923 20.7512 15.2448 19.0909 14.0807 17.9269C12.9166 16.7629 11.2526 16.4142 8.5186 16.3106C8.44242 16.3071 8.38053 16.244 8.38053 16.1678V15.8488C8.38053 15.7715 8.44242 15.7084 8.5186 15.706C11.2526 15.6025 12.9154 15.2549 14.0807 14.0897C15.2472 12.9234 15.5947 11.2571 15.6983 8.51845C15.7018 8.44228 15.7649 8.38039 15.8411 8.38039H16.1601C16.2375 8.38039 16.3005 8.44228 16.3029 8.51845C16.4065 11.2583 16.754 12.9234 17.9205 14.0897C19.0846 15.2537 20.7486 15.6025 23.4826 15.706Z" fill="#3364CD"/>
</svg>
