<svg width="870" height="655" viewBox="0 0 870 655" fill="none" xmlns="http://www.w3.org/2000/svg">
<g clip-path="url(#clip0_2036_5026)">
<path opacity="0.1" d="M81.247 704.326C57.4155 698.261 55.7326 689.405 64.5923 668.076C73.9539 644.194 76.8747 631.853 56.265 621.469C56.265 621.469 13.5875 602.593 5.26018 596.378C-3.06711 590.164 -0.304982 581.225 5.26019 569.45C5.26019 569.45 93.7379 426.196 97.9016 402.375C102.065 378.553 84.3697 350.913 84.3697 317.831C84.3697 284.749 78.8278 194.735 200.615 85.9851C322.402 -22.7648 562.01 -15.7201 654.739 37.5497C808.794 126.05 911.049 277.397 853.993 459.35C796.938 641.303 731.819 621.469 731.819 799.612L755.526 1000.73L359.818 1005L342.334 849.906C342.334 849.906 253.069 881.15 187.311 881.15C121.553 881.15 89.3841 860.014 81.247 829.689C73.1098 799.363 86.4515 755.076 86.4515 755.076C66.7367 734.052 63.1046 724.523 81.247 704.326Z" fill="url(#paint0_linear_2036_5026)"/>
<path opacity="0.2" d="M163.383 657.334C145.085 652.681 143.792 645.887 150.595 629.524C157.783 611.203 160.026 601.735 144.201 593.769C144.201 593.769 111.433 579.288 105.039 574.52C98.645 569.753 100.766 562.895 105.039 553.862C105.039 553.862 172.974 443.963 176.17 425.688C179.367 407.413 165.78 386.208 165.78 360.829C165.78 335.449 161.525 266.394 255.035 182.965C348.545 99.5356 532.521 104.94 603.719 145.807C722.005 213.701 800.518 329.809 756.71 469.397C712.902 608.985 662.902 593.769 662.902 730.434L681.105 884.728L377.274 888L363.849 769.017C363.849 769.017 295.311 792.987 244.82 792.987C194.33 792.987 169.631 776.772 163.383 753.508C157.135 730.243 167.379 696.267 167.379 696.267C152.242 680.139 149.453 672.828 163.383 657.334Z" fill="url(#paint1_linear_2036_5026)"/>
<path d="M248.485 591.704C236.61 588.684 235.771 584.275 240.186 573.654C244.85 561.763 246.306 555.618 236.036 550.447C236.036 550.447 214.771 541.048 210.621 537.954C206.472 534.859 207.848 530.408 210.621 524.545C210.621 524.545 254.709 453.215 256.783 441.354C258.858 429.493 250.041 415.73 250.041 399.257C250.041 382.784 247.279 337.964 307.964 283.814C368.65 229.665 488.044 233.172 534.25 259.697C611.014 303.764 661.967 379.124 633.536 469.723C605.106 560.323 572.658 550.447 572.658 639.149L584.471 739.294L387.294 741.418L378.581 664.192C378.581 664.192 334.102 679.75 301.335 679.75C268.569 679.75 252.539 669.226 248.485 654.126C244.43 639.026 251.078 616.974 251.078 616.974C241.254 606.506 239.444 601.761 248.485 591.704Z" fill="url(#paint2_linear_2036_5026)"/>
<mask id="mask0_2036_5026" style="mask-type:alpha" maskUnits="userSpaceOnUse" x="208" y="241" width="434" height="501">
<path d="M248.485 591.704C236.61 588.684 235.771 584.275 240.186 573.654C244.85 561.763 246.306 555.618 236.036 550.447C236.036 550.447 214.771 541.048 210.621 537.954C206.472 534.859 207.848 530.408 210.621 524.545C210.621 524.545 254.709 453.215 256.783 441.354C258.858 429.493 250.041 415.73 250.041 399.257C250.041 382.784 247.279 337.964 307.964 283.814C368.65 229.665 488.044 233.172 534.25 259.697C611.014 303.764 661.967 379.124 633.536 469.723C605.106 560.323 572.658 550.447 572.658 639.149L584.471 739.294L387.294 741.418L378.581 664.192C378.581 664.192 334.102 679.75 301.335 679.75C268.569 679.75 252.539 669.226 248.485 654.126C244.43 639.026 251.078 616.974 251.078 616.974C241.254 606.506 239.444 601.761 248.485 591.704Z" fill="url(#paint3_linear_2036_5026)"/>
</mask>
<g mask="url(#mask0_2036_5026)">
<path d="M270.43 264.687L271.097 264.554L289.58 264.191C290.912 263.927 291.727 262.409 291.043 261.138C290.087 259.346 289.516 257.304 289.458 255.117C289.278 247.745 295.027 241.657 302.225 241.673C309.425 241.349 315.446 247.178 315.609 254.559C315.657 256.741 315.181 258.807 314.304 260.637C313.685 261.938 314.569 263.418 315.909 263.624L334.396 263.19L335.07 263.299C336.182 263.323 337.091 264.24 337.112 265.399L337.558 285.896C338.166 286.588 339.165 286.867 340.055 286.374C344.017 284.194 349.226 284.101 354.406 287.605C354.938 287.963 355.414 288.431 355.784 288.961C363.113 299.409 356.176 310.923 346.396 311.152C344.325 311.201 342.358 310.732 340.613 309.868C339.672 309.402 338.642 309.803 338.098 310.602L338.544 331.219C338.572 332.415 337.657 333.393 336.504 333.41L317.072 333.796L316.771 333.758L316.653 333.76C315.001 333.797 314.036 331.938 314.9 330.482C317.376 326.26 317.591 320.497 313.871 314.959C313.067 314.03 312.14 313.215 311.114 312.545C308.635 311.128 306.158 310.509 303.836 310.529C301.516 310.614 299.068 311.334 296.66 312.865C295.666 313.569 294.777 314.418 294.013 315.387C290.559 321.085 291.045 326.834 293.721 330.94C294.643 332.36 293.768 334.259 292.118 334.289L292 334.291L291.697 334.344L272.271 334.795C271.117 334.823 270.157 333.881 270.129 332.693L269.618 312.074C269.035 311.299 267.984 310.947 267.066 311.451C265.354 312.393 263.415 312.942 261.344 312.983C251.561 313.178 244.101 301.98 250.929 291.224C251.28 290.677 251.731 290.186 252.246 289.813C257.257 286.089 262.471 285.956 266.526 287.962C267.438 288.412 268.432 288.1 268.997 287.375L268.486 266.885C268.456 265.73 269.32 264.777 270.43 264.696L270.43 264.687Z" fill="#E0E8F9"/>
<path d="M368.391 476.545C368.391 474.712 366.529 475.458 365.597 475.948C363.868 476.85 362.214 477.461 360.142 477.461C353.202 477.47 347.509 471.714 347.311 464.63C347.041 454.976 356.386 447.727 365.543 452.477C366.45 452.942 368.391 453.632 368.391 451.799L368.391 429H393.137C390.571 431.593 389.062 434.492 389.046 438.208C389.015 445.578 394.894 451.549 402.101 451.399C409.315 451.59 415.22 445.647 415.229 438.274C415.219 434.637 413.719 431.755 411.467 429H436V453C436 453 435.803 452.738 434.906 452.26C423.977 446.536 415.901 456.12 416 465C416.07 471.218 420.582 477.092 429.074 477.124C431.149 477.137 432.533 475.976 434.834 475.732C435.371 475.675 436.213 475.628 436.213 475.628L436.213 499.458C436.213 499.458 419.104 499.43 410.55 499.458C410.55 499.458 412.181 497.301 413.075 495.858C415.642 491.694 415.972 485.946 412.364 480.339C411.58 479.389 410.67 478.566 409.659 477.875C407.206 476.41 404.74 475.747 402.413 475.722C400.09 475.759 397.63 476.438 395.187 477.909C394.182 478.604 393.272 479.433 392.491 480.389C388.911 486.012 389.279 491.76 391.868 495.915C393.327 498.267 394.053 499.458 394.053 499.458L368.391 499.458C368.391 499.458 368.403 479.64 368.391 476.545Z" fill="#C4D3F2"/>
<path d="M484.624 494.66C484.165 495.119 484.004 499 484.92 499C491.894 498.958 506 499 506 499V476.595C506 475.178 507.606 475.445 508.538 475.926C510.264 476.828 512.219 477.346 514.294 477.346C524.093 477.359 531.323 466.032 524.263 455.412C523.904 454.878 523.442 454.397 522.919 454.026C517.827 450.405 512.609 450.371 508.588 452.454C507.688 452.919 506 453.379 506 452C506 443.052 506 437.948 506 429L485.082 428.881C483.744 428.645 482.769 427.406 483.427 426.121C484.349 424.314 484.875 422.258 484.888 420.08C484.923 412.707 479.04 406.738 471.83 406.889C464.622 406.701 458.715 412.644 458.705 420.014C458.705 422.198 459.221 424.254 460.141 426.064C460.79 427.35 459.338 428.777 458 429H436C436 436.617 436 453 436 453C436 453 435.803 452.738 434.906 452.26C423.977 446.536 415.901 456.12 416 465C416.069 471.218 420.581 477.092 429.074 477.124C431.149 477.137 432.532 475.976 434.833 475.732C435.371 475.675 436 476 436 476V499C436 499 455.937 499.009 458 499C458.458 499 458.961 496.035 458.503 495.119C458.045 494.202 457.473 491.659 457.455 489.13V489.023C457.455 487.593 457.726 486.264 458.082 485.016C459.769 479.173 465 474.839 471.301 474.839L471.634 474.846L471.915 474.839C478.209 474.839 483.443 479.173 485.13 485.016C485.486 486.264 485.754 487.593 485.754 489.03V489.058C485.754 491.616 485.082 494.202 484.624 494.66Z" fill="#CFDCF6"/>
<path d="M506 429L506.153 406.151C506.153 405.234 507.826 405.047 508.758 405.528C510.483 406.43 512.439 406.949 514.514 406.949C524.313 406.961 531.543 395.634 524.483 385.014C524.124 384.48 523.661 383.999 523.139 383.628C518.047 380.008 512.829 379.973 508.808 382.057C507.908 382.522 507 382.057 507 381V359H485C483.662 358.764 483.054 357.017 483.712 355.732C484.634 353.924 485.16 351.869 485.173 349.691C485.207 342.318 479.325 336.349 472.114 336.5C464.907 336.311 458.999 342.255 458.99 349.625C458.99 351.809 459.506 353.865 460.426 355.675C461.075 356.96 460.338 358.777 459 359H437V381C437 381.5 437.088 382.349 436.191 381.871C432.182 379.772 425.961 379.778 420.854 383.377C420.331 383.741 419.865 384.225 419.5 384.757C412.384 395.336 419.563 406.697 429.359 406.735C430.465 406.742 431.374 406.415 432.331 406.072C433.169 405.771 433.5 405.5 434.5 405.5C435.5 405.5 436 406 436 406V429H458C459.338 428.777 460.79 427.35 460.141 426.064C459.222 424.254 458.705 422.198 458.705 420.014C458.715 412.644 464.622 406.701 471.83 406.889C479.041 406.738 484.923 412.707 484.888 420.08C484.875 422.258 484.35 424.314 483.427 426.121C482.769 427.406 483.744 428.645 485.082 428.881L506 429Z" fill="#D8E2F8"/>
<path d="M506 429L506.153 406.151C506.153 405.234 507.826 405.047 508.758 405.528C510.483 406.43 512.439 406.949 514.514 406.949C524.313 406.961 531.543 395.634 524.483 385.014C524.124 384.48 523.661 383.999 523.139 383.628C518.047 380.008 512.829 379.973 508.808 382.057C507.908 382.522 507 382.057 507 381V359H485C483.662 358.764 483.054 357.017 483.712 355.732C484.634 353.924 485.16 351.869 485.173 349.691C485.207 342.318 479.325 336.349 472.114 336.5C464.907 336.311 458.999 342.255 458.99 349.625C458.99 351.809 459.506 353.865 460.426 355.675C461.075 356.96 460.338 358.777 459 359H437V381C437 381.5 437.088 382.349 436.191 381.871C432.182 379.772 425.961 379.778 420.854 383.377C420.331 383.741 419.865 384.225 419.5 384.757C412.384 395.336 419.563 406.697 429.359 406.735C430.465 406.742 431.374 406.415 432.331 406.072C433.169 405.771 433.5 405.5 434.5 405.5C435.5 405.5 436 406 436 406V429H458C459.338 428.777 460.79 427.35 460.141 426.064C459.222 424.254 458.705 422.198 458.705 420.014C458.715 412.644 464.622 406.701 471.83 406.889C479.041 406.738 484.923 412.707 484.888 420.08C484.875 422.258 484.35 424.314 483.427 426.121C482.769 427.406 483.744 428.645 485.082 428.881L506 429Z" fill="#D8E2F8"/>
<path d="M577 429.329L600.217 429.853C601.129 429.853 601.315 431.525 600.837 432.457C599.94 434.182 599.424 436.136 599.424 438.21C599.411 448.005 610.677 455.231 621.239 448.175C621.77 447.816 622.248 447.353 622.617 446.831C626.218 441.742 626.253 436.526 624.18 432.507C623.718 431.607 624.18 430.7 625.231 430.7L646.618 430.328L646.618 408.339C646.853 407.001 648.59 406.393 649.869 407.051C651.666 407.973 653.711 408.499 655.877 408.512C663.21 408.546 669.146 402.667 668.996 395.46C669.183 388.255 663.272 382.351 655.942 382.341C653.77 382.341 651.726 382.858 649.925 383.777C648.647 384.425 646.84 383.689 646.618 382.351L647 360L625 360C624.503 360 624.025 359.897 624.5 359C626.588 354.993 626.382 349.329 622.803 344.224C622.44 343.701 621.959 343.236 621.431 342.87C610.909 335.757 599.609 342.933 599.572 352.725C599.561 354.498 601 355.917 601 357.5C601 358.5 600.5 359 600.5 359L577 359L577 381.352C577.222 382.689 578.641 384.14 579.92 383.492C581.72 382.573 584.258 382.428 586.43 382.428C593.76 382.438 599.671 388.342 599.483 395.546C599.633 402.754 593.697 408.633 586.364 408.599C584.198 408.586 581.661 407.689 579.864 406.766C578.585 406.109 577.353 407.083 577.118 408.421L577 429.329Z" fill="#D8E2F8"/>
<path d="M577 429.329L600.217 429.853C601.129 429.853 601.315 431.525 600.837 432.457C599.94 434.182 599.424 436.136 599.424 438.21C599.411 448.005 610.677 455.231 621.239 448.175C621.77 447.816 622.248 447.353 622.617 446.831C626.218 441.742 626.253 436.526 624.18 432.507C623.718 431.607 624.18 430.7 625.231 430.7L646.618 430.328L646.618 408.339C646.853 407.001 648.59 406.393 649.869 407.051C651.666 407.973 653.711 408.499 655.877 408.512C663.21 408.546 669.146 402.667 668.996 395.46C669.183 388.255 663.272 382.351 655.942 382.341C653.77 382.341 651.726 382.858 649.925 383.777C648.647 384.425 646.84 383.689 646.618 382.351L647 360L625 360C624.503 360 624.025 359.897 624.5 359C626.588 354.993 626.382 349.329 622.803 344.224C622.44 343.701 621.959 343.236 621.431 342.87C610.909 335.757 599.609 342.933 599.572 352.725C599.561 354.498 601 355.917 601 357.5C601 358.5 600.5 359 600.5 359L577 359L577 381.352C577.222 382.689 578.641 384.14 579.92 383.492C581.72 382.573 584.258 382.428 586.43 382.428C593.76 382.438 599.671 388.342 599.483 395.546C599.633 402.754 593.697 408.633 586.364 408.599C584.198 408.586 581.661 407.689 579.864 406.766C578.585 406.109 577.353 407.083 577.118 408.421L577 429.329Z" fill="#D8E2F8"/>
</g>
</g>
<defs>
<linearGradient id="paint0_linear_2036_5026" x1="435" y1="0" x2="435" y2="1005" gradientUnits="userSpaceOnUse">
<stop stop-color="#EAF1FF"/>
<stop offset="1" stop-color="#3364CD"/>
</linearGradient>
<linearGradient id="paint1_linear_2036_5026" x1="435" y1="117" x2="435" y2="888" gradientUnits="userSpaceOnUse">
<stop stop-color="#EAF1FF"/>
<stop offset="1" stop-color="#3364CD"/>
</linearGradient>
<linearGradient id="paint2_linear_2036_5026" x1="424.756" y1="184" x2="424.756" y2="741.418" gradientUnits="userSpaceOnUse">
<stop stop-color="#EAF1FF"/>
<stop offset="1" stop-color="#3364CD"/>
</linearGradient>
<linearGradient id="paint3_linear_2036_5026" x1="424.756" y1="241" x2="424.756" y2="741.418" gradientUnits="userSpaceOnUse">
<stop stop-color="#EAF1FF"/>
<stop offset="0.74194" stop-color="#3B5180"/>
</linearGradient>
<clipPath id="clip0_2036_5026">
<rect width="870" height="655" fill="white"/>
</clipPath>
</defs>
</svg>
