<svg width="283" height="388" viewBox="0 0 283 388" fill="none" xmlns="http://www.w3.org/2000/svg">
<g opacity="0.4">
<circle cx="2.71073" cy="2.71073" r="2.71073" fill="#9DE79F"/>
<circle cx="16.5898" cy="2.71073" r="2.71073" fill="#9DE79F"/>
<circle cx="30.4685" cy="2.71073" r="2.71073" fill="#9DE79F"/>
<circle cx="44.3476" cy="2.71073" r="2.71073" fill="#9DE79F"/>
<circle cx="58.2264" cy="2.71073" r="2.71073" fill="#9DE79F"/>
<circle cx="72.1054" cy="2.71073" r="2.71073" fill="#9DE79F"/>
<circle cx="85.9844" cy="2.71073" r="2.71073" fill="#9DE79F"/>
<circle cx="99.8632" cy="2.71073" r="2.71073" fill="#9DE79F"/>
<circle cx="113.742" cy="2.71073" r="2.71073" fill="#9DE79F"/>
<circle cx="127.621" cy="2.71073" r="2.71073" fill="#9DE79F"/>
<circle cx="141.5" cy="2.71073" r="2.71073" fill="#9DE79F"/>
<circle cx="155.379" cy="2.71073" r="2.71073" fill="#9DE79F"/>
<circle cx="169.258" cy="2.71073" r="2.71073" fill="#9DE79F"/>
<circle cx="183.137" cy="2.71073" r="2.71073" fill="#9DE79F"/>
<circle cx="197.016" cy="2.71073" r="2.71073" fill="#9DE79F"/>
<circle cx="210.895" cy="2.71073" r="2.71073" fill="#9DE79F"/>
<circle cx="224.774" cy="2.71073" r="2.71073" fill="#9DE79F"/>
<circle cx="238.653" cy="2.71073" r="2.71073" fill="#9DE79F"/>
<circle cx="252.532" cy="2.71073" r="2.71073" fill="#9DE79F"/>
<circle cx="266.41" cy="2.71073" r="2.71073" fill="#9DE79F"/>
<circle cx="280.289" cy="2.71073" r="2.71073" fill="#9DE79F"/>
<circle cx="2.71073" cy="16.8064" r="2.71073" fill="#9DE79F"/>
<circle cx="16.5898" cy="16.8064" r="2.71073" fill="#9DE79F"/>
<circle cx="30.4685" cy="16.8064" r="2.71073" fill="#9DE79F"/>
<circle cx="44.3476" cy="16.8064" r="2.71073" fill="#9DE79F"/>
<circle cx="58.2264" cy="16.8064" r="2.71073" fill="#9DE79F"/>
<circle cx="72.1054" cy="16.8064" r="2.71073" fill="#9DE79F"/>
<circle cx="85.9844" cy="16.8064" r="2.71073" fill="#9DE79F"/>
<circle cx="99.8632" cy="16.8064" r="2.71073" fill="#9DE79F"/>
<circle cx="113.742" cy="16.8064" r="2.71073" fill="#9DE79F"/>
<circle cx="127.621" cy="16.8064" r="2.71073" fill="#9DE79F"/>
<circle cx="141.5" cy="16.8064" r="2.71073" fill="#9DE79F"/>
<circle cx="155.379" cy="16.8064" r="2.71073" fill="#9DE79F"/>
<circle cx="169.258" cy="16.8064" r="2.71073" fill="#9DE79F"/>
<circle cx="183.137" cy="16.8064" r="2.71073" fill="#9DE79F"/>
<circle cx="197.016" cy="16.8064" r="2.71073" fill="#9DE79F"/>
<circle cx="210.895" cy="16.8064" r="2.71073" fill="#9DE79F"/>
<circle cx="224.774" cy="16.8064" r="2.71073" fill="#9DE79F"/>
<circle cx="238.653" cy="16.8064" r="2.71073" fill="#9DE79F"/>
<circle cx="252.532" cy="16.8064" r="2.71073" fill="#9DE79F"/>
<circle cx="266.41" cy="16.8064" r="2.71073" fill="#9DE79F"/>
<circle cx="280.289" cy="16.8064" r="2.71073" fill="#9DE79F"/>
<circle cx="2.71073" cy="30.9021" r="2.71073" fill="#9DE79F"/>
<circle cx="16.5898" cy="30.9021" r="2.71073" fill="#9DE79F"/>
<circle cx="30.4685" cy="30.9021" r="2.71073" fill="#9DE79F"/>
<circle cx="44.3476" cy="30.9021" r="2.71073" fill="#9DE79F"/>
<circle cx="58.2264" cy="30.9021" r="2.71073" fill="#9DE79F"/>
<circle cx="72.1054" cy="30.9021" r="2.71073" fill="#9DE79F"/>
<circle cx="85.9844" cy="30.9021" r="2.71073" fill="#9DE79F"/>
<circle cx="99.8632" cy="30.9021" r="2.71073" fill="#9DE79F"/>
<circle cx="113.742" cy="30.9021" r="2.71073" fill="#9DE79F"/>
<circle cx="127.621" cy="30.9021" r="2.71073" fill="#9DE79F"/>
<circle cx="141.5" cy="30.9021" r="2.71073" fill="#9DE79F"/>
<circle cx="155.379" cy="30.9021" r="2.71073" fill="#9DE79F"/>
<circle cx="169.258" cy="30.9021" r="2.71073" fill="#9DE79F"/>
<circle cx="183.137" cy="30.9021" r="2.71073" fill="#9DE79F"/>
<circle cx="197.016" cy="30.9021" r="2.71073" fill="#9DE79F"/>
<circle cx="210.895" cy="30.9021" r="2.71073" fill="#9DE79F"/>
<circle cx="224.774" cy="30.9021" r="2.71073" fill="#9DE79F"/>
<circle cx="238.653" cy="30.9021" r="2.71073" fill="#9DE79F"/>
<circle cx="252.532" cy="30.9021" r="2.71073" fill="#9DE79F"/>
<circle cx="266.41" cy="30.9021" r="2.71073" fill="#9DE79F"/>
<circle cx="280.289" cy="30.9021" r="2.71073" fill="#9DE79F"/>
<circle cx="2.71073" cy="44.9983" r="2.71073" fill="#9DE79F"/>
<circle cx="16.5898" cy="44.9983" r="2.71073" fill="#9DE79F"/>
<circle cx="30.4685" cy="44.9983" r="2.71073" fill="#9DE79F"/>
<circle cx="44.3476" cy="44.9983" r="2.71073" fill="#9DE79F"/>
<circle cx="58.2264" cy="44.9983" r="2.71073" fill="#9DE79F"/>
<circle cx="72.1054" cy="44.9983" r="2.71073" fill="#9DE79F"/>
<circle cx="85.9844" cy="44.9983" r="2.71073" fill="#9DE79F"/>
<circle cx="99.8632" cy="44.9983" r="2.71073" fill="#9DE79F"/>
<circle cx="113.742" cy="44.9983" r="2.71073" fill="#9DE79F"/>
<circle cx="127.621" cy="44.9983" r="2.71073" fill="#9DE79F"/>
<circle cx="141.5" cy="44.9983" r="2.71073" fill="#9DE79F"/>
<circle cx="155.379" cy="44.9983" r="2.71073" fill="#9DE79F"/>
<circle cx="169.258" cy="44.9983" r="2.71073" fill="#9DE79F"/>
<circle cx="183.137" cy="44.9983" r="2.71073" fill="#9DE79F"/>
<circle cx="197.016" cy="44.9983" r="2.71073" fill="#9DE79F"/>
<circle cx="210.895" cy="44.9983" r="2.71073" fill="#9DE79F"/>
<circle cx="224.774" cy="44.9983" r="2.71073" fill="#9DE79F"/>
<circle cx="238.653" cy="44.9983" r="2.71073" fill="#9DE79F"/>
<circle cx="252.532" cy="44.9983" r="2.71073" fill="#9DE79F"/>
<circle cx="266.41" cy="44.9983" r="2.71073" fill="#9DE79F"/>
<circle cx="280.289" cy="44.9983" r="2.71073" fill="#9DE79F"/>
<circle cx="2.71073" cy="59.094" r="2.71073" fill="#9DE79F"/>
<circle cx="16.5898" cy="59.094" r="2.71073" fill="#9DE79F"/>
<circle cx="30.4685" cy="59.094" r="2.71073" fill="#9DE79F"/>
<circle cx="44.3476" cy="59.094" r="2.71073" fill="#9DE79F"/>
<circle cx="58.2264" cy="59.094" r="2.71073" fill="#9DE79F"/>
<circle cx="72.1054" cy="59.094" r="2.71073" fill="#9DE79F"/>
<circle cx="85.9844" cy="59.094" r="2.71073" fill="#9DE79F"/>
<circle cx="99.8632" cy="59.094" r="2.71073" fill="#9DE79F"/>
<circle cx="113.742" cy="59.094" r="2.71073" fill="#9DE79F"/>
<circle cx="127.621" cy="59.094" r="2.71073" fill="#9DE79F"/>
<circle cx="141.5" cy="59.094" r="2.71073" fill="#9DE79F"/>
<circle cx="155.379" cy="59.094" r="2.71073" fill="#9DE79F"/>
<circle cx="169.258" cy="59.094" r="2.71073" fill="#9DE79F"/>
<circle cx="183.137" cy="59.094" r="2.71073" fill="#9DE79F"/>
<circle cx="197.016" cy="59.094" r="2.71073" fill="#9DE79F"/>
<circle cx="210.895" cy="59.094" r="2.71073" fill="#9DE79F"/>
<circle cx="224.774" cy="59.094" r="2.71073" fill="#9DE79F"/>
<circle cx="238.653" cy="59.094" r="2.71073" fill="#9DE79F"/>
<circle cx="252.532" cy="59.094" r="2.71073" fill="#9DE79F"/>
<circle cx="266.41" cy="59.094" r="2.71073" fill="#9DE79F"/>
<circle cx="280.289" cy="59.094" r="2.71073" fill="#9DE79F"/>
<circle cx="2.71073" cy="73.1897" r="2.71073" fill="#9DE79F"/>
<circle cx="16.5898" cy="73.1897" r="2.71073" fill="#9DE79F"/>
<circle cx="30.4685" cy="73.1897" r="2.71073" fill="#9DE79F"/>
<circle cx="44.3476" cy="73.1897" r="2.71073" fill="#9DE79F"/>
<circle cx="58.2264" cy="73.1897" r="2.71073" fill="#9DE79F"/>
<circle cx="72.1054" cy="73.1897" r="2.71073" fill="#9DE79F"/>
<circle cx="85.9844" cy="73.1897" r="2.71073" fill="#9DE79F"/>
<circle cx="99.8632" cy="73.1897" r="2.71073" fill="#9DE79F"/>
<circle cx="113.742" cy="73.1897" r="2.71073" fill="#9DE79F"/>
<circle cx="127.621" cy="73.1897" r="2.71073" fill="#9DE79F"/>
<circle cx="141.5" cy="73.1897" r="2.71073" fill="#9DE79F"/>
<circle cx="155.379" cy="73.1897" r="2.71073" fill="#9DE79F"/>
<circle cx="169.258" cy="73.1897" r="2.71073" fill="#9DE79F"/>
<circle cx="183.137" cy="73.1897" r="2.71073" fill="#9DE79F"/>
<circle cx="197.016" cy="73.1897" r="2.71073" fill="#9DE79F"/>
<circle cx="210.895" cy="73.1897" r="2.71073" fill="#9DE79F"/>
<circle cx="224.774" cy="73.1897" r="2.71073" fill="#9DE79F"/>
<circle cx="238.653" cy="73.1897" r="2.71073" fill="#9DE79F"/>
<circle cx="252.532" cy="73.1897" r="2.71073" fill="#9DE79F"/>
<circle cx="266.41" cy="73.1897" r="2.71073" fill="#9DE79F"/>
<circle cx="280.289" cy="73.1897" r="2.71073" fill="#9DE79F"/>
<circle cx="2.71073" cy="87.2854" r="2.71073" fill="#9DE79F"/>
<circle cx="16.5898" cy="87.2854" r="2.71073" fill="#9DE79F"/>
<circle cx="30.4685" cy="87.2854" r="2.71073" fill="#9DE79F"/>
<circle cx="44.3476" cy="87.2854" r="2.71073" fill="#9DE79F"/>
<circle cx="58.2264" cy="87.2854" r="2.71073" fill="#9DE79F"/>
<circle cx="72.1054" cy="87.2854" r="2.71073" fill="#9DE79F"/>
<circle cx="85.9844" cy="87.2854" r="2.71073" fill="#9DE79F"/>
<circle cx="99.8632" cy="87.2854" r="2.71073" fill="#9DE79F"/>
<circle cx="113.742" cy="87.2854" r="2.71073" fill="#9DE79F"/>
<circle cx="127.621" cy="87.2854" r="2.71073" fill="#9DE79F"/>
<circle cx="141.5" cy="87.2854" r="2.71073" fill="#9DE79F"/>
<circle cx="155.379" cy="87.2854" r="2.71073" fill="#9DE79F"/>
<circle cx="169.258" cy="87.2854" r="2.71073" fill="#9DE79F"/>
<circle cx="183.137" cy="87.2854" r="2.71073" fill="#9DE79F"/>
<circle cx="197.016" cy="87.2854" r="2.71073" fill="#9DE79F"/>
<circle cx="210.895" cy="87.2854" r="2.71073" fill="#9DE79F"/>
<circle cx="224.774" cy="87.2854" r="2.71073" fill="#9DE79F"/>
<circle cx="238.653" cy="87.2854" r="2.71073" fill="#9DE79F"/>
<circle cx="252.532" cy="87.2854" r="2.71073" fill="#9DE79F"/>
<circle cx="266.41" cy="87.2854" r="2.71073" fill="#9DE79F"/>
<circle cx="280.289" cy="87.2854" r="2.71073" fill="#9DE79F"/>
<circle cx="2.71073" cy="101.381" r="2.71073" fill="#9DE79F"/>
<circle cx="16.5898" cy="101.381" r="2.71073" fill="#9DE79F"/>
<circle cx="30.4685" cy="101.381" r="2.71073" fill="#9DE79F"/>
<circle cx="44.3476" cy="101.381" r="2.71073" fill="#9DE79F"/>
<circle cx="58.2264" cy="101.381" r="2.71073" fill="#9DE79F"/>
<circle cx="72.1054" cy="101.381" r="2.71073" fill="#9DE79F"/>
<circle cx="85.9844" cy="101.381" r="2.71073" fill="#9DE79F"/>
<circle cx="99.8632" cy="101.381" r="2.71073" fill="#9DE79F"/>
<circle cx="113.742" cy="101.381" r="2.71073" fill="#9DE79F"/>
<circle cx="127.621" cy="101.381" r="2.71073" fill="#9DE79F"/>
<circle cx="141.5" cy="101.381" r="2.71073" fill="#9DE79F"/>
<circle cx="155.379" cy="101.381" r="2.71073" fill="#9DE79F"/>
<circle cx="169.258" cy="101.381" r="2.71073" fill="#9DE79F"/>
<circle cx="183.137" cy="101.381" r="2.71073" fill="#9DE79F"/>
<circle cx="197.016" cy="101.381" r="2.71073" fill="#9DE79F"/>
<circle cx="210.895" cy="101.381" r="2.71073" fill="#9DE79F"/>
<circle cx="224.774" cy="101.381" r="2.71073" fill="#9DE79F"/>
<circle cx="238.653" cy="101.381" r="2.71073" fill="#9DE79F"/>
<circle cx="252.532" cy="101.381" r="2.71073" fill="#9DE79F"/>
<circle cx="266.41" cy="101.381" r="2.71073" fill="#9DE79F"/>
<circle cx="280.289" cy="101.381" r="2.71073" fill="#9DE79F"/>
<circle cx="2.71073" cy="115.477" r="2.71073" fill="#9DE79F"/>
<circle cx="16.5898" cy="115.477" r="2.71073" fill="#9DE79F"/>
<circle cx="30.4685" cy="115.477" r="2.71073" fill="#9DE79F"/>
<circle cx="44.3476" cy="115.477" r="2.71073" fill="#9DE79F"/>
<circle cx="58.2264" cy="115.477" r="2.71073" fill="#9DE79F"/>
<circle cx="72.1054" cy="115.477" r="2.71073" fill="#9DE79F"/>
<circle cx="85.9844" cy="115.477" r="2.71073" fill="#9DE79F"/>
<circle cx="99.8632" cy="115.477" r="2.71073" fill="#9DE79F"/>
<circle cx="113.742" cy="115.477" r="2.71073" fill="#9DE79F"/>
<circle cx="127.621" cy="115.477" r="2.71073" fill="#9DE79F"/>
<circle cx="141.5" cy="115.477" r="2.71073" fill="#9DE79F"/>
<circle cx="155.379" cy="115.477" r="2.71073" fill="#9DE79F"/>
<circle cx="169.258" cy="115.477" r="2.71073" fill="#9DE79F"/>
<circle cx="183.137" cy="115.477" r="2.71073" fill="#9DE79F"/>
<circle cx="197.016" cy="115.477" r="2.71073" fill="#9DE79F"/>
<circle cx="210.895" cy="115.477" r="2.71073" fill="#9DE79F"/>
<circle cx="224.774" cy="115.477" r="2.71073" fill="#9DE79F"/>
<circle cx="238.653" cy="115.477" r="2.71073" fill="#9DE79F"/>
<circle cx="252.532" cy="115.477" r="2.71073" fill="#9DE79F"/>
<circle cx="266.41" cy="115.477" r="2.71073" fill="#9DE79F"/>
<circle cx="280.289" cy="115.477" r="2.71073" fill="#9DE79F"/>
<circle cx="2.71073" cy="129.573" r="2.71073" fill="#9DE79F"/>
<circle cx="16.5898" cy="129.573" r="2.71073" fill="#9DE79F"/>
<circle cx="30.4685" cy="129.573" r="2.71073" fill="#9DE79F"/>
<circle cx="44.3476" cy="129.573" r="2.71073" fill="#9DE79F"/>
<circle cx="58.2264" cy="129.573" r="2.71073" fill="#9DE79F"/>
<circle cx="72.1054" cy="129.573" r="2.71073" fill="#9DE79F"/>
<circle cx="85.9844" cy="129.573" r="2.71073" fill="#9DE79F"/>
<circle cx="99.8632" cy="129.573" r="2.71073" fill="#9DE79F"/>
<circle cx="113.742" cy="129.573" r="2.71073" fill="#9DE79F"/>
<circle cx="127.621" cy="129.573" r="2.71073" fill="#9DE79F"/>
<circle cx="141.5" cy="129.573" r="2.71073" fill="#9DE79F"/>
<circle cx="155.379" cy="129.573" r="2.71073" fill="#9DE79F"/>
<circle cx="169.258" cy="129.573" r="2.71073" fill="#9DE79F"/>
<circle cx="183.137" cy="129.573" r="2.71073" fill="#9DE79F"/>
<circle cx="197.016" cy="129.573" r="2.71073" fill="#9DE79F"/>
<circle cx="210.895" cy="129.573" r="2.71073" fill="#9DE79F"/>
<circle cx="224.774" cy="129.573" r="2.71073" fill="#9DE79F"/>
<circle cx="238.653" cy="129.573" r="2.71073" fill="#9DE79F"/>
<circle cx="252.532" cy="129.573" r="2.71073" fill="#9DE79F"/>
<circle cx="266.41" cy="129.573" r="2.71073" fill="#9DE79F"/>
<circle cx="280.289" cy="129.573" r="2.71073" fill="#9DE79F"/>
<circle cx="2.71073" cy="143.668" r="2.71073" fill="#9DE79F"/>
<circle cx="16.5898" cy="143.668" r="2.71073" fill="#9DE79F"/>
<circle cx="30.4685" cy="143.668" r="2.71073" fill="#9DE79F"/>
<circle cx="44.3476" cy="143.668" r="2.71073" fill="#9DE79F"/>
<circle cx="58.2264" cy="143.668" r="2.71073" fill="#9DE79F"/>
<circle cx="72.1054" cy="143.668" r="2.71073" fill="#9DE79F"/>
<circle cx="85.9844" cy="143.668" r="2.71073" fill="#9DE79F"/>
<circle cx="99.8632" cy="143.668" r="2.71073" fill="#9DE79F"/>
<circle cx="113.742" cy="143.668" r="2.71073" fill="#9DE79F"/>
<circle cx="127.621" cy="143.668" r="2.71073" fill="#9DE79F"/>
<circle cx="141.5" cy="143.668" r="2.71073" fill="#9DE79F"/>
<circle cx="155.379" cy="143.668" r="2.71073" fill="#9DE79F"/>
<circle cx="169.258" cy="143.668" r="2.71073" fill="#9DE79F"/>
<circle cx="183.137" cy="143.668" r="2.71073" fill="#9DE79F"/>
<circle cx="197.016" cy="143.668" r="2.71073" fill="#9DE79F"/>
<circle cx="210.895" cy="143.668" r="2.71073" fill="#9DE79F"/>
<circle cx="224.774" cy="143.668" r="2.71073" fill="#9DE79F"/>
<circle cx="238.653" cy="143.668" r="2.71073" fill="#9DE79F"/>
<circle cx="252.532" cy="143.668" r="2.71073" fill="#9DE79F"/>
<circle cx="266.41" cy="143.668" r="2.71073" fill="#9DE79F"/>
<circle cx="280.289" cy="143.668" r="2.71073" fill="#9DE79F"/>
<circle cx="2.71073" cy="157.764" r="2.71073" fill="#9DE79F"/>
<circle cx="16.5898" cy="157.764" r="2.71073" fill="#9DE79F"/>
<circle cx="30.4685" cy="157.764" r="2.71073" fill="#9DE79F"/>
<circle cx="44.3476" cy="157.764" r="2.71073" fill="#9DE79F"/>
<circle cx="58.2264" cy="157.764" r="2.71073" fill="#9DE79F"/>
<circle cx="72.1054" cy="157.764" r="2.71073" fill="#9DE79F"/>
<circle cx="85.9844" cy="157.764" r="2.71073" fill="#9DE79F"/>
<circle cx="99.8632" cy="157.764" r="2.71073" fill="#9DE79F"/>
<circle cx="113.742" cy="157.764" r="2.71073" fill="#9DE79F"/>
<circle cx="127.621" cy="157.764" r="2.71073" fill="#9DE79F"/>
<circle cx="141.5" cy="157.764" r="2.71073" fill="#9DE79F"/>
<circle cx="155.379" cy="157.764" r="2.71073" fill="#9DE79F"/>
<circle cx="169.258" cy="157.764" r="2.71073" fill="#9DE79F"/>
<circle cx="183.137" cy="157.764" r="2.71073" fill="#9DE79F"/>
<circle cx="197.016" cy="157.764" r="2.71073" fill="#9DE79F"/>
<circle cx="210.895" cy="157.764" r="2.71073" fill="#9DE79F"/>
<circle cx="224.774" cy="157.764" r="2.71073" fill="#9DE79F"/>
<circle cx="238.653" cy="157.764" r="2.71073" fill="#9DE79F"/>
<circle cx="252.532" cy="157.764" r="2.71073" fill="#9DE79F"/>
<circle cx="266.41" cy="157.764" r="2.71073" fill="#9DE79F"/>
<circle cx="280.289" cy="157.764" r="2.71073" fill="#9DE79F"/>
<circle cx="2.71073" cy="171.86" r="2.71073" fill="#9DE79F"/>
<circle cx="16.5898" cy="171.86" r="2.71073" fill="#9DE79F"/>
<circle cx="30.4685" cy="171.86" r="2.71073" fill="#9DE79F"/>
<circle cx="44.3476" cy="171.86" r="2.71073" fill="#9DE79F"/>
<circle cx="58.2264" cy="171.86" r="2.71073" fill="#9DE79F"/>
<circle cx="72.1054" cy="171.86" r="2.71073" fill="#9DE79F"/>
<circle cx="85.9844" cy="171.86" r="2.71073" fill="#9DE79F"/>
<circle cx="99.8632" cy="171.86" r="2.71073" fill="#9DE79F"/>
<circle cx="113.742" cy="171.86" r="2.71073" fill="#9DE79F"/>
<circle cx="127.621" cy="171.86" r="2.71073" fill="#9DE79F"/>
<circle cx="141.5" cy="171.86" r="2.71073" fill="#9DE79F"/>
<circle cx="155.379" cy="171.86" r="2.71073" fill="#9DE79F"/>
<circle cx="169.258" cy="171.86" r="2.71073" fill="#9DE79F"/>
<circle cx="183.137" cy="171.86" r="2.71073" fill="#9DE79F"/>
<circle cx="197.016" cy="171.86" r="2.71073" fill="#9DE79F"/>
<circle cx="210.895" cy="171.86" r="2.71073" fill="#9DE79F"/>
<circle cx="224.774" cy="171.86" r="2.71073" fill="#9DE79F"/>
<circle cx="238.653" cy="171.86" r="2.71073" fill="#9DE79F"/>
<circle cx="252.532" cy="171.86" r="2.71073" fill="#9DE79F"/>
<circle cx="266.41" cy="171.86" r="2.71073" fill="#9DE79F"/>
<circle cx="280.289" cy="171.86" r="2.71073" fill="#9DE79F"/>
<circle cx="2.71073" cy="185.956" r="2.71073" fill="#9DE79F"/>
<circle cx="16.5898" cy="185.956" r="2.71073" fill="#9DE79F"/>
<circle cx="30.4685" cy="185.956" r="2.71073" fill="#9DE79F"/>
<circle cx="44.3476" cy="185.956" r="2.71073" fill="#9DE79F"/>
<circle cx="58.2264" cy="185.956" r="2.71073" fill="#9DE79F"/>
<circle cx="72.1054" cy="185.956" r="2.71073" fill="#9DE79F"/>
<circle cx="85.9844" cy="185.956" r="2.71073" fill="#9DE79F"/>
<circle cx="99.8632" cy="185.956" r="2.71073" fill="#9DE79F"/>
<circle cx="113.742" cy="185.956" r="2.71073" fill="#9DE79F"/>
<circle cx="127.621" cy="185.956" r="2.71073" fill="#9DE79F"/>
<circle cx="141.5" cy="185.956" r="2.71073" fill="#9DE79F"/>
<circle cx="155.379" cy="185.956" r="2.71073" fill="#9DE79F"/>
<circle cx="169.258" cy="185.956" r="2.71073" fill="#9DE79F"/>
<circle cx="183.137" cy="185.956" r="2.71073" fill="#9DE79F"/>
<circle cx="197.016" cy="185.956" r="2.71073" fill="#9DE79F"/>
<circle cx="210.895" cy="185.956" r="2.71073" fill="#9DE79F"/>
<circle cx="224.774" cy="185.956" r="2.71073" fill="#9DE79F"/>
<circle cx="238.653" cy="185.956" r="2.71073" fill="#9DE79F"/>
<circle cx="252.532" cy="185.956" r="2.71073" fill="#9DE79F"/>
<circle cx="266.41" cy="185.956" r="2.71073" fill="#9DE79F"/>
<circle cx="280.289" cy="185.956" r="2.71073" fill="#9DE79F"/>
</g>
<g opacity="0.4">
<circle cx="2.71073" cy="201.136" r="2.71073" fill="#9DE79F"/>
<circle cx="16.5898" cy="201.136" r="2.71073" fill="#9DE79F"/>
<circle cx="30.4685" cy="201.136" r="2.71073" fill="#9DE79F"/>
<circle cx="44.3476" cy="201.136" r="2.71073" fill="#9DE79F"/>
<circle cx="58.2264" cy="201.136" r="2.71073" fill="#9DE79F"/>
<circle cx="72.1054" cy="201.136" r="2.71073" fill="#9DE79F"/>
<circle cx="85.9844" cy="201.136" r="2.71073" fill="#9DE79F"/>
<circle cx="99.8632" cy="201.136" r="2.71073" fill="#9DE79F"/>
<circle cx="113.742" cy="201.136" r="2.71073" fill="#9DE79F"/>
<circle cx="127.621" cy="201.136" r="2.71073" fill="#9DE79F"/>
<circle cx="141.5" cy="201.136" r="2.71073" fill="#9DE79F"/>
<circle cx="155.379" cy="201.136" r="2.71073" fill="#9DE79F"/>
<circle cx="169.258" cy="201.136" r="2.71073" fill="#9DE79F"/>
<circle cx="183.137" cy="201.136" r="2.71073" fill="#9DE79F"/>
<circle cx="197.016" cy="201.136" r="2.71073" fill="#9DE79F"/>
<circle cx="210.895" cy="201.136" r="2.71073" fill="#9DE79F"/>
<circle cx="224.774" cy="201.136" r="2.71073" fill="#9DE79F"/>
<circle cx="238.653" cy="201.136" r="2.71073" fill="#9DE79F"/>
<circle cx="252.532" cy="201.136" r="2.71073" fill="#9DE79F"/>
<circle cx="266.41" cy="201.136" r="2.71073" fill="#9DE79F"/>
<circle cx="280.289" cy="201.136" r="2.71073" fill="#9DE79F"/>
<circle cx="2.71073" cy="215.232" r="2.71073" fill="#9DE79F"/>
<circle cx="16.5898" cy="215.232" r="2.71073" fill="#9DE79F"/>
<circle cx="30.4685" cy="215.232" r="2.71073" fill="#9DE79F"/>
<circle cx="44.3476" cy="215.232" r="2.71073" fill="#9DE79F"/>
<circle cx="58.2264" cy="215.232" r="2.71073" fill="#9DE79F"/>
<circle cx="72.1054" cy="215.232" r="2.71073" fill="#9DE79F"/>
<circle cx="85.9844" cy="215.232" r="2.71073" fill="#9DE79F"/>
<circle cx="99.8632" cy="215.232" r="2.71073" fill="#9DE79F"/>
<circle cx="113.742" cy="215.232" r="2.71073" fill="#9DE79F"/>
<circle cx="127.621" cy="215.232" r="2.71073" fill="#9DE79F"/>
<circle cx="141.5" cy="215.232" r="2.71073" fill="#9DE79F"/>
<circle cx="155.379" cy="215.232" r="2.71073" fill="#9DE79F"/>
<circle cx="169.258" cy="215.232" r="2.71073" fill="#9DE79F"/>
<circle cx="183.137" cy="215.232" r="2.71073" fill="#9DE79F"/>
<circle cx="197.016" cy="215.232" r="2.71073" fill="#9DE79F"/>
<circle cx="210.895" cy="215.232" r="2.71073" fill="#9DE79F"/>
<circle cx="224.774" cy="215.232" r="2.71073" fill="#9DE79F"/>
<circle cx="238.653" cy="215.232" r="2.71073" fill="#9DE79F"/>
<circle cx="252.532" cy="215.232" r="2.71073" fill="#9DE79F"/>
<circle cx="266.41" cy="215.232" r="2.71073" fill="#9DE79F"/>
<circle cx="280.289" cy="215.232" r="2.71073" fill="#9DE79F"/>
<circle cx="2.71073" cy="229.327" r="2.71073" fill="#9DE79F"/>
<circle cx="16.5898" cy="229.327" r="2.71073" fill="#9DE79F"/>
<circle cx="30.4685" cy="229.327" r="2.71073" fill="#9DE79F"/>
<circle cx="44.3476" cy="229.327" r="2.71073" fill="#9DE79F"/>
<circle cx="58.2264" cy="229.327" r="2.71073" fill="#9DE79F"/>
<circle cx="72.1054" cy="229.327" r="2.71073" fill="#9DE79F"/>
<circle cx="85.9844" cy="229.327" r="2.71073" fill="#9DE79F"/>
<circle cx="99.8632" cy="229.327" r="2.71073" fill="#9DE79F"/>
<circle cx="113.742" cy="229.327" r="2.71073" fill="#9DE79F"/>
<circle cx="127.621" cy="229.327" r="2.71073" fill="#9DE79F"/>
<circle cx="141.5" cy="229.327" r="2.71073" fill="#9DE79F"/>
<circle cx="155.379" cy="229.327" r="2.71073" fill="#9DE79F"/>
<circle cx="169.258" cy="229.327" r="2.71073" fill="#9DE79F"/>
<circle cx="183.137" cy="229.327" r="2.71073" fill="#9DE79F"/>
<circle cx="197.016" cy="229.327" r="2.71073" fill="#9DE79F"/>
<circle cx="210.895" cy="229.327" r="2.71073" fill="#9DE79F"/>
<circle cx="224.774" cy="229.327" r="2.71073" fill="#9DE79F"/>
<circle cx="238.653" cy="229.327" r="2.71073" fill="#9DE79F"/>
<circle cx="252.532" cy="229.327" r="2.71073" fill="#9DE79F"/>
<circle cx="266.41" cy="229.327" r="2.71073" fill="#9DE79F"/>
<circle cx="280.289" cy="229.327" r="2.71073" fill="#9DE79F"/>
<circle cx="2.71073" cy="243.423" r="2.71073" fill="#9DE79F"/>
<circle cx="16.5898" cy="243.423" r="2.71073" fill="#9DE79F"/>
<circle cx="30.4685" cy="243.423" r="2.71073" fill="#9DE79F"/>
<circle cx="44.3476" cy="243.423" r="2.71073" fill="#9DE79F"/>
<circle cx="58.2264" cy="243.423" r="2.71073" fill="#9DE79F"/>
<circle cx="72.1054" cy="243.423" r="2.71073" fill="#9DE79F"/>
<circle cx="85.9844" cy="243.423" r="2.71073" fill="#9DE79F"/>
<circle cx="99.8632" cy="243.423" r="2.71073" fill="#9DE79F"/>
<circle cx="113.742" cy="243.423" r="2.71073" fill="#9DE79F"/>
<circle cx="127.621" cy="243.423" r="2.71073" fill="#9DE79F"/>
<circle cx="141.5" cy="243.423" r="2.71073" fill="#9DE79F"/>
<circle cx="155.379" cy="243.423" r="2.71073" fill="#9DE79F"/>
<circle cx="169.258" cy="243.423" r="2.71073" fill="#9DE79F"/>
<circle cx="183.137" cy="243.423" r="2.71073" fill="#9DE79F"/>
<circle cx="197.016" cy="243.423" r="2.71073" fill="#9DE79F"/>
<circle cx="210.895" cy="243.423" r="2.71073" fill="#9DE79F"/>
<circle cx="224.774" cy="243.423" r="2.71073" fill="#9DE79F"/>
<circle cx="238.653" cy="243.423" r="2.71073" fill="#9DE79F"/>
<circle cx="252.532" cy="243.423" r="2.71073" fill="#9DE79F"/>
<circle cx="266.41" cy="243.423" r="2.71073" fill="#9DE79F"/>
<circle cx="280.289" cy="243.423" r="2.71073" fill="#9DE79F"/>
<circle cx="2.71073" cy="257.519" r="2.71073" fill="#9DE79F"/>
<circle cx="16.5898" cy="257.519" r="2.71073" fill="#9DE79F"/>
<circle cx="30.4685" cy="257.519" r="2.71073" fill="#9DE79F"/>
<circle cx="44.3476" cy="257.519" r="2.71073" fill="#9DE79F"/>
<circle cx="58.2264" cy="257.519" r="2.71073" fill="#9DE79F"/>
<circle cx="72.1054" cy="257.519" r="2.71073" fill="#9DE79F"/>
<circle cx="85.9844" cy="257.519" r="2.71073" fill="#9DE79F"/>
<circle cx="99.8632" cy="257.519" r="2.71073" fill="#9DE79F"/>
<circle cx="113.742" cy="257.519" r="2.71073" fill="#9DE79F"/>
<circle cx="127.621" cy="257.519" r="2.71073" fill="#9DE79F"/>
<circle cx="141.5" cy="257.519" r="2.71073" fill="#9DE79F"/>
<circle cx="155.379" cy="257.519" r="2.71073" fill="#9DE79F"/>
<circle cx="169.258" cy="257.519" r="2.71073" fill="#9DE79F"/>
<circle cx="183.137" cy="257.519" r="2.71073" fill="#9DE79F"/>
<circle cx="197.016" cy="257.519" r="2.71073" fill="#9DE79F"/>
<circle cx="210.895" cy="257.519" r="2.71073" fill="#9DE79F"/>
<circle cx="224.774" cy="257.519" r="2.71073" fill="#9DE79F"/>
<circle cx="238.653" cy="257.519" r="2.71073" fill="#9DE79F"/>
<circle cx="252.532" cy="257.519" r="2.71073" fill="#9DE79F"/>
<circle cx="266.41" cy="257.519" r="2.71073" fill="#9DE79F"/>
<circle cx="280.289" cy="257.519" r="2.71073" fill="#9DE79F"/>
<circle cx="2.71073" cy="271.615" r="2.71073" fill="#9DE79F"/>
<circle cx="16.5898" cy="271.615" r="2.71073" fill="#9DE79F"/>
<circle cx="30.4685" cy="271.615" r="2.71073" fill="#9DE79F"/>
<circle cx="44.3476" cy="271.615" r="2.71073" fill="#9DE79F"/>
<circle cx="58.2264" cy="271.615" r="2.71073" fill="#9DE79F"/>
<circle cx="72.1054" cy="271.615" r="2.71073" fill="#9DE79F"/>
<circle cx="85.9844" cy="271.615" r="2.71073" fill="#9DE79F"/>
<circle cx="99.8632" cy="271.615" r="2.71073" fill="#9DE79F"/>
<circle cx="113.742" cy="271.615" r="2.71073" fill="#9DE79F"/>
<circle cx="127.621" cy="271.615" r="2.71073" fill="#9DE79F"/>
<circle cx="141.5" cy="271.615" r="2.71073" fill="#9DE79F"/>
<circle cx="155.379" cy="271.615" r="2.71073" fill="#9DE79F"/>
<circle cx="169.258" cy="271.615" r="2.71073" fill="#9DE79F"/>
<circle cx="183.137" cy="271.615" r="2.71073" fill="#9DE79F"/>
<circle cx="197.016" cy="271.615" r="2.71073" fill="#9DE79F"/>
<circle cx="210.895" cy="271.615" r="2.71073" fill="#9DE79F"/>
<circle cx="224.774" cy="271.615" r="2.71073" fill="#9DE79F"/>
<circle cx="238.653" cy="271.615" r="2.71073" fill="#9DE79F"/>
<circle cx="252.532" cy="271.615" r="2.71073" fill="#9DE79F"/>
<circle cx="266.41" cy="271.615" r="2.71073" fill="#9DE79F"/>
<circle cx="280.289" cy="271.615" r="2.71073" fill="#9DE79F"/>
<circle cx="2.71073" cy="285.711" r="2.71073" fill="#9DE79F"/>
<circle cx="16.5898" cy="285.711" r="2.71073" fill="#9DE79F"/>
<circle cx="30.4685" cy="285.711" r="2.71073" fill="#9DE79F"/>
<circle cx="44.3476" cy="285.711" r="2.71073" fill="#9DE79F"/>
<circle cx="58.2264" cy="285.711" r="2.71073" fill="#9DE79F"/>
<circle cx="72.1054" cy="285.711" r="2.71073" fill="#9DE79F"/>
<circle cx="85.9844" cy="285.711" r="2.71073" fill="#9DE79F"/>
<circle cx="99.8632" cy="285.711" r="2.71073" fill="#9DE79F"/>
<circle cx="113.742" cy="285.711" r="2.71073" fill="#9DE79F"/>
<circle cx="127.621" cy="285.711" r="2.71073" fill="#9DE79F"/>
<circle cx="141.5" cy="285.711" r="2.71073" fill="#9DE79F"/>
<circle cx="155.379" cy="285.711" r="2.71073" fill="#9DE79F"/>
<circle cx="169.258" cy="285.711" r="2.71073" fill="#9DE79F"/>
<circle cx="183.137" cy="285.711" r="2.71073" fill="#9DE79F"/>
<circle cx="197.016" cy="285.711" r="2.71073" fill="#9DE79F"/>
<circle cx="210.895" cy="285.711" r="2.71073" fill="#9DE79F"/>
<circle cx="224.774" cy="285.711" r="2.71073" fill="#9DE79F"/>
<circle cx="238.653" cy="285.711" r="2.71073" fill="#9DE79F"/>
<circle cx="252.532" cy="285.711" r="2.71073" fill="#9DE79F"/>
<circle cx="266.41" cy="285.711" r="2.71073" fill="#9DE79F"/>
<circle cx="280.289" cy="285.711" r="2.71073" fill="#9DE79F"/>
<circle cx="2.71073" cy="299.806" r="2.71073" fill="#9DE79F"/>
<circle cx="16.5898" cy="299.806" r="2.71073" fill="#9DE79F"/>
<circle cx="30.4685" cy="299.806" r="2.71073" fill="#9DE79F"/>
<circle cx="44.3476" cy="299.806" r="2.71073" fill="#9DE79F"/>
<circle cx="58.2264" cy="299.806" r="2.71073" fill="#9DE79F"/>
<circle cx="72.1054" cy="299.806" r="2.71073" fill="#9DE79F"/>
<circle cx="85.9844" cy="299.806" r="2.71073" fill="#9DE79F"/>
<circle cx="99.8632" cy="299.806" r="2.71073" fill="#9DE79F"/>
<circle cx="113.742" cy="299.806" r="2.71073" fill="#9DE79F"/>
<circle cx="127.621" cy="299.806" r="2.71073" fill="#9DE79F"/>
<circle cx="141.5" cy="299.806" r="2.71073" fill="#9DE79F"/>
<circle cx="155.379" cy="299.806" r="2.71073" fill="#9DE79F"/>
<circle cx="169.258" cy="299.806" r="2.71073" fill="#9DE79F"/>
<circle cx="183.137" cy="299.806" r="2.71073" fill="#9DE79F"/>
<circle cx="197.016" cy="299.806" r="2.71073" fill="#9DE79F"/>
<circle cx="210.895" cy="299.806" r="2.71073" fill="#9DE79F"/>
<circle cx="224.774" cy="299.806" r="2.71073" fill="#9DE79F"/>
<circle cx="238.653" cy="299.806" r="2.71073" fill="#9DE79F"/>
<circle cx="252.532" cy="299.806" r="2.71073" fill="#9DE79F"/>
<circle cx="266.41" cy="299.806" r="2.71073" fill="#9DE79F"/>
<circle cx="280.289" cy="299.806" r="2.71073" fill="#9DE79F"/>
<circle cx="2.71073" cy="313.902" r="2.71073" fill="#9DE79F"/>
<circle cx="16.5898" cy="313.902" r="2.71073" fill="#9DE79F"/>
<circle cx="30.4685" cy="313.902" r="2.71073" fill="#9DE79F"/>
<circle cx="44.3476" cy="313.902" r="2.71073" fill="#9DE79F"/>
<circle cx="58.2264" cy="313.902" r="2.71073" fill="#9DE79F"/>
<circle cx="72.1054" cy="313.902" r="2.71073" fill="#9DE79F"/>
<circle cx="85.9844" cy="313.902" r="2.71073" fill="#9DE79F"/>
<circle cx="99.8632" cy="313.902" r="2.71073" fill="#9DE79F"/>
<circle cx="113.742" cy="313.902" r="2.71073" fill="#9DE79F"/>
<circle cx="127.621" cy="313.902" r="2.71073" fill="#9DE79F"/>
<circle cx="141.5" cy="313.902" r="2.71073" fill="#9DE79F"/>
<circle cx="155.379" cy="313.902" r="2.71073" fill="#9DE79F"/>
<circle cx="169.258" cy="313.902" r="2.71073" fill="#9DE79F"/>
<circle cx="183.137" cy="313.902" r="2.71073" fill="#9DE79F"/>
<circle cx="197.016" cy="313.902" r="2.71073" fill="#9DE79F"/>
<circle cx="210.895" cy="313.902" r="2.71073" fill="#9DE79F"/>
<circle cx="224.774" cy="313.902" r="2.71073" fill="#9DE79F"/>
<circle cx="238.653" cy="313.902" r="2.71073" fill="#9DE79F"/>
<circle cx="252.532" cy="313.902" r="2.71073" fill="#9DE79F"/>
<circle cx="266.41" cy="313.902" r="2.71073" fill="#9DE79F"/>
<circle cx="280.289" cy="313.902" r="2.71073" fill="#9DE79F"/>
<circle cx="2.71073" cy="327.998" r="2.71073" fill="#9DE79F"/>
<circle cx="16.5898" cy="327.998" r="2.71073" fill="#9DE79F"/>
<circle cx="30.4685" cy="327.998" r="2.71073" fill="#9DE79F"/>
<circle cx="44.3476" cy="327.998" r="2.71073" fill="#9DE79F"/>
<circle cx="58.2264" cy="327.998" r="2.71073" fill="#9DE79F"/>
<circle cx="72.1054" cy="327.998" r="2.71073" fill="#9DE79F"/>
<circle cx="85.9844" cy="327.998" r="2.71073" fill="#9DE79F"/>
<circle cx="99.8632" cy="327.998" r="2.71073" fill="#9DE79F"/>
<circle cx="113.742" cy="327.998" r="2.71073" fill="#9DE79F"/>
<circle cx="127.621" cy="327.998" r="2.71073" fill="#9DE79F"/>
<circle cx="141.5" cy="327.998" r="2.71073" fill="#9DE79F"/>
<circle cx="155.379" cy="327.998" r="2.71073" fill="#9DE79F"/>
<circle cx="169.258" cy="327.998" r="2.71073" fill="#9DE79F"/>
<circle cx="183.137" cy="327.998" r="2.71073" fill="#9DE79F"/>
<circle cx="197.016" cy="327.998" r="2.71073" fill="#9DE79F"/>
<circle cx="210.895" cy="327.998" r="2.71073" fill="#9DE79F"/>
<circle cx="224.774" cy="327.998" r="2.71073" fill="#9DE79F"/>
<circle cx="238.653" cy="327.998" r="2.71073" fill="#9DE79F"/>
<circle cx="252.532" cy="327.998" r="2.71073" fill="#9DE79F"/>
<circle cx="266.41" cy="327.998" r="2.71073" fill="#9DE79F"/>
<circle cx="280.289" cy="327.998" r="2.71073" fill="#9DE79F"/>
<circle cx="2.71073" cy="342.094" r="2.71073" fill="#9DE79F"/>
<circle cx="16.5898" cy="342.094" r="2.71073" fill="#9DE79F"/>
<circle cx="30.4685" cy="342.094" r="2.71073" fill="#9DE79F"/>
<circle cx="44.3476" cy="342.094" r="2.71073" fill="#9DE79F"/>
<circle cx="58.2264" cy="342.094" r="2.71073" fill="#9DE79F"/>
<circle cx="72.1054" cy="342.094" r="2.71073" fill="#9DE79F"/>
<circle cx="85.9844" cy="342.094" r="2.71073" fill="#9DE79F"/>
<circle cx="99.8632" cy="342.094" r="2.71073" fill="#9DE79F"/>
<circle cx="113.742" cy="342.094" r="2.71073" fill="#9DE79F"/>
<circle cx="127.621" cy="342.094" r="2.71073" fill="#9DE79F"/>
<circle cx="141.5" cy="342.094" r="2.71073" fill="#9DE79F"/>
<circle cx="155.379" cy="342.094" r="2.71073" fill="#9DE79F"/>
<circle cx="169.258" cy="342.094" r="2.71073" fill="#9DE79F"/>
<circle cx="183.137" cy="342.094" r="2.71073" fill="#9DE79F"/>
<circle cx="197.016" cy="342.094" r="2.71073" fill="#9DE79F"/>
<circle cx="210.895" cy="342.094" r="2.71073" fill="#9DE79F"/>
<circle cx="224.774" cy="342.094" r="2.71073" fill="#9DE79F"/>
<circle cx="238.653" cy="342.094" r="2.71073" fill="#9DE79F"/>
<circle cx="252.532" cy="342.094" r="2.71073" fill="#9DE79F"/>
<circle cx="266.41" cy="342.094" r="2.71073" fill="#9DE79F"/>
<circle cx="280.289" cy="342.094" r="2.71073" fill="#9DE79F"/>
<circle cx="2.71073" cy="356.19" r="2.71073" fill="#9DE79F"/>
<circle cx="16.5898" cy="356.19" r="2.71073" fill="#9DE79F"/>
<circle cx="30.4685" cy="356.19" r="2.71073" fill="#9DE79F"/>
<circle cx="44.3476" cy="356.19" r="2.71073" fill="#9DE79F"/>
<circle cx="58.2264" cy="356.19" r="2.71073" fill="#9DE79F"/>
<circle cx="72.1054" cy="356.19" r="2.71073" fill="#9DE79F"/>
<circle cx="85.9844" cy="356.19" r="2.71073" fill="#9DE79F"/>
<circle cx="99.8632" cy="356.19" r="2.71073" fill="#9DE79F"/>
<circle cx="113.742" cy="356.19" r="2.71073" fill="#9DE79F"/>
<circle cx="127.621" cy="356.19" r="2.71073" fill="#9DE79F"/>
<circle cx="141.5" cy="356.19" r="2.71073" fill="#9DE79F"/>
<circle cx="155.379" cy="356.19" r="2.71073" fill="#9DE79F"/>
<circle cx="169.258" cy="356.19" r="2.71073" fill="#9DE79F"/>
<circle cx="183.137" cy="356.19" r="2.71073" fill="#9DE79F"/>
<circle cx="197.016" cy="356.19" r="2.71073" fill="#9DE79F"/>
<circle cx="210.895" cy="356.19" r="2.71073" fill="#9DE79F"/>
<circle cx="224.774" cy="356.19" r="2.71073" fill="#9DE79F"/>
<circle cx="238.653" cy="356.19" r="2.71073" fill="#9DE79F"/>
<circle cx="252.532" cy="356.19" r="2.71073" fill="#9DE79F"/>
<circle cx="266.41" cy="356.19" r="2.71073" fill="#9DE79F"/>
<circle cx="280.289" cy="356.19" r="2.71073" fill="#9DE79F"/>
<circle cx="2.71073" cy="370.285" r="2.71073" fill="#9DE79F"/>
<circle cx="16.5898" cy="370.285" r="2.71073" fill="#9DE79F"/>
<circle cx="30.4685" cy="370.285" r="2.71073" fill="#9DE79F"/>
<circle cx="44.3476" cy="370.285" r="2.71073" fill="#9DE79F"/>
<circle cx="58.2264" cy="370.285" r="2.71073" fill="#9DE79F"/>
<circle cx="72.1054" cy="370.285" r="2.71073" fill="#9DE79F"/>
<circle cx="85.9844" cy="370.285" r="2.71073" fill="#9DE79F"/>
<circle cx="99.8632" cy="370.285" r="2.71073" fill="#9DE79F"/>
<circle cx="113.742" cy="370.285" r="2.71073" fill="#9DE79F"/>
<circle cx="127.621" cy="370.285" r="2.71073" fill="#9DE79F"/>
<circle cx="141.5" cy="370.285" r="2.71073" fill="#9DE79F"/>
<circle cx="155.379" cy="370.285" r="2.71073" fill="#9DE79F"/>
<circle cx="169.258" cy="370.285" r="2.71073" fill="#9DE79F"/>
<circle cx="183.137" cy="370.285" r="2.71073" fill="#9DE79F"/>
<circle cx="197.016" cy="370.285" r="2.71073" fill="#9DE79F"/>
<circle cx="210.895" cy="370.285" r="2.71073" fill="#9DE79F"/>
<circle cx="224.774" cy="370.285" r="2.71073" fill="#9DE79F"/>
<circle cx="238.653" cy="370.285" r="2.71073" fill="#9DE79F"/>
<circle cx="252.532" cy="370.285" r="2.71073" fill="#9DE79F"/>
<circle cx="266.41" cy="370.285" r="2.71073" fill="#9DE79F"/>
<circle cx="280.289" cy="370.285" r="2.71073" fill="#9DE79F"/>
<circle cx="2.71073" cy="384.381" r="2.71073" fill="#9DE79F"/>
<circle cx="16.5898" cy="384.381" r="2.71073" fill="#9DE79F"/>
<circle cx="30.4685" cy="384.381" r="2.71073" fill="#9DE79F"/>
<circle cx="44.3476" cy="384.381" r="2.71073" fill="#9DE79F"/>
<circle cx="58.2264" cy="384.381" r="2.71073" fill="#9DE79F"/>
<circle cx="72.1054" cy="384.381" r="2.71073" fill="#9DE79F"/>
<circle cx="85.9844" cy="384.381" r="2.71073" fill="#9DE79F"/>
<circle cx="99.8632" cy="384.381" r="2.71073" fill="#9DE79F"/>
<circle cx="113.742" cy="384.381" r="2.71073" fill="#9DE79F"/>
<circle cx="127.621" cy="384.381" r="2.71073" fill="#9DE79F"/>
<circle cx="141.5" cy="384.381" r="2.71073" fill="#9DE79F"/>
<circle cx="155.379" cy="384.381" r="2.71073" fill="#9DE79F"/>
<circle cx="169.258" cy="384.381" r="2.71073" fill="#9DE79F"/>
<circle cx="183.137" cy="384.381" r="2.71073" fill="#9DE79F"/>
<circle cx="197.016" cy="384.381" r="2.71073" fill="#9DE79F"/>
<circle cx="210.895" cy="384.381" r="2.71073" fill="#9DE79F"/>
<circle cx="224.774" cy="384.381" r="2.71073" fill="#9DE79F"/>
<circle cx="238.653" cy="384.381" r="2.71073" fill="#9DE79F"/>
<circle cx="252.532" cy="384.381" r="2.71073" fill="#9DE79F"/>
<circle cx="266.41" cy="384.381" r="2.71073" fill="#9DE79F"/>
<circle cx="280.289" cy="384.381" r="2.71073" fill="#9DE79F"/>
</g>
<g opacity="0.6">
<path opacity="0.87" d="M229 175.046L267 115.046V271.546H11L54 208.046L121 217.046L229 175.046Z" fill="url(#paint0_linear_2100_7385)"/>
<path d="M266.5 115.546L229 175.046L121 217.046L54 208.046L10.5 272.046" stroke="url(#paint1_linear_2100_7385)" stroke-width="2" stroke-linecap="round"/>
</g>
<circle opacity="0.5" cx="266.5" cy="115.546" r="7.5" fill="white"/>
<circle cx="266.5" cy="115.546" r="4.23913" fill="white"/>
<defs>
<linearGradient id="paint0_linear_2100_7385" x1="148.75" y1="366.094" x2="89.0001" y2="-10.4542" gradientUnits="userSpaceOnUse">
<stop offset="0.320168" stop-color="white" stop-opacity="0"/>
<stop offset="0.529113" stop-color="white" stop-opacity="0.7"/>
</linearGradient>
<linearGradient id="paint1_linear_2100_7385" x1="284.5" y1="230.344" x2="12.9999" y2="230.344" gradientUnits="userSpaceOnUse">
<stop stop-color="white"/>
<stop offset="0.237181" stop-color="#CDEDCE"/>
<stop offset="0.761997" stop-color="#74C477"/>
<stop offset="1" stop-color="#74C477" stop-opacity="0"/>
</linearGradient>
</defs>
</svg>
