<svg width="224" height="203" viewBox="0 0 224 203" fill="none" xmlns="http://www.w3.org/2000/svg">
<g clip-path="url(#clip0_2100_7397)">
<path d="M0.542618 54.0907L0.954905 53.4432L14.9347 38.1906C15.7593 36.8991 15.2165 35.0105 13.7082 34.5357C11.5884 33.8594 9.57163 32.6687 7.84004 30.9456C2.01311 25.1251 1.75199 15.5455 7.31781 9.73223C12.6225 3.64198 21.7649 3.4873 27.5849 9.32933C29.3062 11.056 30.5328 13.1137 31.268 15.3045C31.7937 16.8585 33.618 17.3405 34.8102 16.4232L48.7385 1.10947L49.3432 0.652614C50.2193 -0.228728 51.6279 -0.221533 52.5384 0.699379L68.6964 16.9268C69.6997 16.9952 70.6857 16.4124 70.9915 15.2937C72.3658 10.3222 76.3134 6.03059 83.013 4.67441C83.7001 4.53411 84.4285 4.52692 85.1225 4.65642C98.8378 7.18173 102.37 22.1142 95.0001 30.2153C93.4403 31.9312 91.561 33.1435 89.5476 33.8558C88.462 34.2407 87.9775 35.399 88.1734 36.4854L104.424 52.81C105.369 53.7561 105.417 55.2886 104.541 56.2347L89.8466 72.2751L89.5854 72.4873L89.4961 72.5844C88.249 73.9514 86.0707 73.2284 85.6138 71.3506C84.267 65.9294 79.9861 61.091 72.8433 59.6197C71.5068 59.519 70.1635 59.6089 68.8545 59.8967C65.8482 60.7565 63.4604 62.2602 61.6842 64.1559C59.9595 66.1021 58.6264 68.667 57.9496 71.8542C57.7263 73.2284 57.6954 74.6349 57.8534 76.0379C59.585 83.4447 64.3949 87.7039 69.6275 88.8623C71.4347 89.2652 72.2249 91.5099 70.9743 92.8697L70.885 92.9668L70.6926 93.2546L56.0531 109.342C55.1839 110.299 53.7168 110.313 52.7789 109.374L36.4765 93.0999C35.4286 92.9452 34.3464 93.51 34.0269 94.6612C33.4325 96.8087 32.3606 98.8232 30.7939 100.532C23.3968 108.608 9.00131 105.583 5.97103 91.3516C5.81986 90.625 5.78893 89.8623 5.89887 89.1429C6.89179 82.0742 10.8119 77.7466 15.4879 76.0882C16.5392 75.7141 17.0649 74.6565 16.9412 73.6133L0.738455 57.4434C-0.175439 56.5332 -0.244149 55.0619 0.549496 54.0979L0.542618 54.0907Z" fill="url(#paint0_linear_2100_7397)"/>
<g opacity="0.2" filter="url(#filter0_d_2100_7397)">
<path d="M74.7846 203.21H74.6609L74.3242 203.261L53.1054 203.358C51.841 203.365 50.8206 202.261 50.8138 200.904L50.721 177.32C50.1026 176.428 48.9688 175.997 47.9518 176.558C46.0656 177.59 43.9321 178.184 41.6714 178.184C30.9864 178.198 23.0946 165.233 30.7974 153.078C31.1856 152.467 31.6976 151.913 32.2644 151.492C37.8234 147.348 43.5095 147.308 47.8934 149.693C48.8829 150.225 49.9686 149.88 50.6042 149.071L50.5148 125.634C50.4993 123.654 51 122.735 53.4214 122.735L73.4616 122.692C74.9183 122.962 75.8459 124.976 75.1244 126.447C74.1247 128.516 73.5475 130.865 73.5372 133.361C73.5028 141.797 79.9172 148.632 87.7815 148.459C95.6527 148.679 102.095 141.876 102.105 133.437C102.098 130.94 101.545 128.588 100.538 126.512C99.8305 125.041 100.768 122.998 102.229 122.735L122.542 122.735C124.5 122.735 125.056 124.309 125.056 125.58L125.093 149.779L126.358 149.517C126.931 149.779 127.588 149.826 128.216 149.477L128.608 149.297C129.288 149.305 129.989 149.355 130.714 149.463L130.9 149.488L131.085 149.456C131.882 149.301 132.594 149.168 133.281 149.168C139.757 149.182 145.12 154.416 145.931 161.219C146.003 161.805 146.051 162.395 146.051 163.007C146.051 165.449 145.426 168.057 144.079 170.698C143.79 171.27 143.498 171.849 143.138 172.424C142.825 172.914 142.416 173.356 141.959 173.691C138.984 175.896 136.067 176.781 133.349 176.788C132.621 176.781 131.91 176.72 131.212 176.601L131.027 176.561L130.841 176.594C130.25 176.694 129.79 176.792 129.364 176.846C129.007 176.691 128.642 176.536 128.295 176.342C127.56 175.943 126.767 176.072 126.155 176.504L125.145 176.292L125.183 200.858C125.183 201.171 125.234 201.48 125.303 201.779C124.932 202.595 124.173 203.171 123.272 203.171L102.047 203.185L101.72 203.138H101.593C99.7861 203.146 98.7794 200.998 99.7552 199.347C102.555 194.58 102.916 188.001 98.9787 181.583C98.1232 180.497 97.1303 179.554 96.0274 178.763C93.351 177.087 90.6609 176.328 88.1219 176.299C85.5864 176.342 82.9031 177.119 80.237 178.803C79.141 179.598 78.1481 180.547 77.2961 181.641C73.3897 188.076 73.7917 194.656 76.6158 199.412C77.5881 201.055 76.5952 203.207 74.788 203.207L74.7846 203.21Z" fill="url(#paint1_radial_2100_7397)"/>
</g>
<g opacity="0.2" filter="url(#filter1_d_2100_7397)">
<path d="M149.5 119.064C150 119.588 150 121.686 149 121.686C141.391 121.638 133.949 121.686 126.34 121.686L126.248 98.3771C125.626 97.485 124.495 97.0605 123.478 97.6109C121.596 98.6433 119.462 99.2369 117.198 99.2369C106.506 99.2513 98.6178 86.2866 106.321 74.1312C106.712 73.5197 107.217 72.9693 107.788 72.5448C113.343 68.4007 119.036 68.3611 123.423 70.7462C124.406 71.2786 125.502 70.9332 126.131 70.1238L126.035 46.6873C126.035 45.3707 127 44.2915 128.213 44.234L128.948 44.0865L149.136 44.0721C150.596 43.8023 151.524 42.0864 150.806 40.6151C149.799 38.5466 149.226 36.194 149.212 33.7011C149.174 25.2618 155.592 18.4305 163.46 18.6031C171.324 18.3873 177.769 25.1898 177.78 33.6255C177.78 36.1256 177.216 38.4783 176.213 40.5503C175.505 42.0216 176.44 43.7376 177.9 43.993L198.098 43.903L198.83 44.0433C200.046 44.0973 201.015 45.1693 201.015 46.4931L201.036 69.9296C201.678 70.7318 202.767 71.0807 203.747 70.5339C208.12 68.1309 213.817 68.1381 219.389 72.257C219.96 72.6743 220.468 73.2283 220.867 73.8363C228.631 85.9448 220.798 98.9491 210.109 98.9923C207.845 99.0066 205.708 98.4275 203.826 97.3986C202.802 96.8483 201.668 97.2835 201.06 98.1829L201 121.686C201 121.686 180.251 121.696 178 121.686C177.5 121.686 177.5 120.637 178 119.588C178.5 118.539 179.124 115.628 179.144 112.734V112.612C179.144 110.975 178.848 109.453 178.46 108.025C176.618 101.338 170.912 96.377 164.037 96.377L163.673 96.3842L163.367 96.377C156.499 96.377 150.789 101.338 148.947 108.025C148.559 109.453 148.267 110.975 148.267 112.619V112.651C148.267 115.58 149 118.539 149.5 119.064Z" fill="url(#paint2_radial_2100_7397)"/>
</g>
</g>
<defs>
<filter id="filter0_d_2100_7397" x="-72.2862" y="22.6919" width="318.337" height="280.666" filterUnits="userSpaceOnUse" color-interpolation-filters="sRGB">
<feFlood flood-opacity="0" result="BackgroundImageFix"/>
<feColorMatrix in="SourceAlpha" type="matrix" values="0 0 0 0 0 0 0 0 0 0 0 0 0 0 0 0 0 0 127 0" result="hardAlpha"/>
<feOffset/>
<feGaussianBlur stdDeviation="50"/>
<feComposite in2="hardAlpha" operator="out"/>
<feColorMatrix type="matrix" values="0 0 0 0 0.372549 0 0 0 0 0.537255 0 0 0 0 0.882353 0 0 0 1 0"/>
<feBlend mode="normal" in2="BackgroundImageFix" result="effect1_dropShadow_2100_7397"/>
<feBlend mode="normal" in="SourceGraphic" in2="effect1_dropShadow_2100_7397" result="shape"/>
</filter>
<filter id="filter1_d_2100_7397" x="3.23654" y="-81.4019" width="320.763" height="303.092" filterUnits="userSpaceOnUse" color-interpolation-filters="sRGB">
<feFlood flood-opacity="0" result="BackgroundImageFix"/>
<feColorMatrix in="SourceAlpha" type="matrix" values="0 0 0 0 0 0 0 0 0 0 0 0 0 0 0 0 0 0 127 0" result="hardAlpha"/>
<feOffset/>
<feGaussianBlur stdDeviation="50"/>
<feComposite in2="hardAlpha" operator="out"/>
<feColorMatrix type="matrix" values="0 0 0 0 0.372549 0 0 0 0 0.537255 0 0 0 0 0.882353 0 0 0 1 0"/>
<feBlend mode="normal" in2="BackgroundImageFix" result="effect1_dropShadow_2100_7397"/>
<feBlend mode="normal" in="SourceGraphic" in2="effect1_dropShadow_2100_7397" result="shape"/>
</filter>
<linearGradient id="paint0_linear_2100_7397" x1="52.5834" y1="40.4665" x2="52.5834" y2="110.069" gradientUnits="userSpaceOnUse">
<stop stop-color="#A1B9F5"/>
<stop offset="1" stop-color="#D8E4FF"/>
</linearGradient>
<radialGradient id="paint1_radial_2100_7397" cx="0" cy="0" r="1" gradientTransform="matrix(33.5657 48.5025 73.4952 -24.3371 53.3168 140.036)" gradientUnits="userSpaceOnUse">
<stop stop-color="#0556FF"/>
<stop offset="1" stop-color="#638DE6"/>
</radialGradient>
<radialGradient id="paint2_radial_2100_7397" cx="0" cy="0" r="1" gradientTransform="matrix(34.2538 47.6829 75.002 -23.9258 129.364 60.3715)" gradientUnits="userSpaceOnUse">
<stop stop-color="#0556FF"/>
<stop offset="1" stop-color="#638DE6"/>
</radialGradient>
<clipPath id="clip0_2100_7397">
<rect width="224" height="203" fill="white"/>
</clipPath>
</defs>
</svg>
