<svg width="32" height="32" viewBox="0 0 32 32" fill="none" xmlns="http://www.w3.org/2000/svg">
<circle cx="16" cy="16" r="16" fill="white"/>
<path d="M18.4832 15.1843H11.8241V12.5163H18.4832C18.8722 12.5163 19.1427 12.585 19.2784 12.7049C19.4141 12.8247 19.4982 13.0471 19.4982 13.3719V14.3298C19.4982 14.672 19.4141 14.8944 19.2784 15.0142C19.1427 15.1341 18.8722 15.1853 18.4832 15.1853V15.1843ZM18.9401 10.001H9V21.4106H11.8241V17.6986H17.0286L19.4982 21.4106H22.6606L19.9378 17.6812C20.9416 17.5306 21.3924 17.2191 21.7642 16.7058C22.1359 16.1925 22.3223 15.3718 22.3223 14.2766V13.421C22.3223 12.7715 22.2544 12.2581 22.1359 11.8647C22.0174 11.4713 21.8148 11.1291 21.5271 10.8217C21.2232 10.5307 20.8849 10.3258 20.4787 10.1885C20.0725 10.0686 19.565 10 18.9401 10V10.001Z" fill="#3364CD"/>
<path d="M24.8304 11.5282C26.0287 11.5282 27 10.5568 27 9.35859C27 8.16034 26.0287 7.18896 24.8304 7.18896C23.6321 7.18896 22.6608 8.16034 22.6608 9.35859C22.6608 10.5568 23.6321 11.5282 24.8304 11.5282Z" fill="white"/>
</svg>
