<svg width="32" height="32" viewBox="0 0 32 32" fill="none" xmlns="http://www.w3.org/2000/svg">
<circle cx="16" cy="16" r="16" fill="white"/>
<path d="M25.5414 11.2449C25.6812 10.8152 25.5414 10.5 24.8807 10.5H22.6919C22.135 10.5 21.8805 10.7726 21.7407 11.0721C21.7407 11.0721 20.6279 13.585 19.0509 15.2144C18.5419 15.6885 18.3093 15.8383 18.0319 15.8383C17.8931 15.8383 17.6915 15.6885 17.6915 15.2588V11.2449C17.6915 10.7292 17.5308 10.5 17.0667 10.5H13.6273C13.28 10.5 13.0704 10.7384 13.0704 10.9658C13.0704 11.4538 13.8589 11.5665 13.9397 12.9418V15.9251C13.9397 16.5786 13.813 16.6978 13.5335 16.6978C12.7919 16.6978 10.9874 14.1756 9.91647 11.2884C9.70787 10.7274 9.49728 10.5009 8.93835 10.5009H6.75056C6.12476 10.5009 6 10.7736 6 11.073C6 11.6109 6.74157 14.2726 9.45436 17.793C11.2629 20.1969 13.809 21.5 16.1285 21.5C17.5189 21.5 17.6905 21.2107 17.6905 20.7116V18.8946C17.6905 18.3161 17.8233 18.1996 18.2634 18.1996C18.5868 18.1996 19.1437 18.3512 20.4422 19.5092C21.9254 20.8826 22.1709 21.4991 23.0043 21.4991H25.1921C25.8169 21.4991 26.1293 21.2098 25.9497 20.6386C25.753 20.0702 25.0444 19.2431 24.1042 18.2643C23.5932 17.7061 22.8296 17.1054 22.5971 16.805C22.2727 16.4177 22.3665 16.2468 22.5971 15.903C22.5981 15.9039 25.264 12.427 25.5414 11.2449V11.2449Z" fill="#3364CD"/>
</svg>
