<svg width="22" height="22" viewBox="0 0 22 22" fill="none" xmlns="http://www.w3.org/2000/svg">
<path d="M12.4445 21H9.55557" stroke="white" stroke-width="1.5" stroke-linecap="round" stroke-linejoin="round"/>
<path d="M13.1666 18.8569H8.8333" stroke="white" stroke-width="1.5" stroke-linecap="round" stroke-linejoin="round"/>
<path d="M10.9999 2.13575e-05C10.0153 -0.00231445 9.03996 0.186968 8.12985 0.556996C7.21973 0.927024 6.39281 1.47051 5.69659 2.15622C5.00036 2.84194 4.44855 3.65638 4.07286 4.55276C3.69716 5.44914 3.50497 6.40979 3.50735 7.37954C3.50735 9.52944 4.08079 11.2682 5.80469 12.9921C5.87381 13.0565 5.94597 13.1229 6.02013 13.1911C6.81341 13.9208 7.83668 14.8621 7.83668 15.8464V16.9534C7.83668 17.1491 7.91562 17.3368 8.05613 17.4752C8.19664 17.6136 8.38722 17.7109 8.58594 17.7109H9.87605C9.97541 17.7109 10.0707 17.672 10.141 17.6028C10.2112 17.5336 10.2507 17.4397 10.2507 17.3419V11.9371C10.2507 11.8626 10.2278 11.7898 10.185 11.7283C10.1422 11.6668 10.0815 11.6196 10.0109 11.5927C9.57798 11.4189 9.1667 11.1967 8.78513 10.9306C8.63592 10.8346 8.52627 10.6894 8.47581 10.5211C8.42535 10.3528 8.43738 10.1723 8.50973 10.0119C8.58208 9.85146 8.71004 9.72166 8.8707 9.64571C9.03135 9.56976 9.21421 9.5526 9.38654 9.59733C9.48482 9.62373 9.5766 9.6696 9.65627 9.73213C10.0019 9.97319 10.4686 10.3313 10.9999 10.3313C11.5312 10.3313 11.998 9.97319 12.3436 9.73213C12.4233 9.6696 12.5151 9.62373 12.6133 9.59733C12.7857 9.5526 12.9685 9.56976 13.1292 9.64571C13.2898 9.72166 13.4178 9.85146 13.4902 10.0119C13.5625 10.1723 13.5745 10.3528 13.5241 10.5211C13.4736 10.6894 13.364 10.8346 13.2148 10.9306C12.8332 11.1967 12.4219 11.4189 11.989 11.5927C11.9184 11.6196 11.8577 11.6668 11.8149 11.7283C11.7721 11.7898 11.7492 11.8626 11.7492 11.9371V17.3419C11.7492 17.4397 11.7887 17.5336 11.8589 17.6028C11.9292 17.672 12.0245 17.7109 12.1238 17.7109H13.4192C13.6179 17.7109 13.8032 17.6136 13.9438 17.4752C14.0843 17.3368 14.1632 17.1491 14.1632 16.9534V15.8464C14.1632 14.8621 15.1865 13.9208 15.9798 13.1911C16.0539 13.1229 16.1261 13.0565 16.1952 12.9921C17.9191 11.2682 18.4925 9.52944 18.4925 7.37954C18.4949 6.40979 18.3027 5.44914 17.927 4.55276C17.5513 3.65638 16.9995 2.84194 16.3033 2.15622C15.6071 1.47051 14.7802 0.927024 13.87 0.556996C12.9599 0.186968 11.9845 -0.00231445 10.9999 2.13575e-05Z" fill="white"/>
</svg>
