<svg width="22" height="22" viewBox="0 0 22 22" fill="none" xmlns="http://www.w3.org/2000/svg">
<path d="M8.83332 16.7143V15.6429C8.83332 14.3476 7.40911 13.1238 6.48563 12.2495C5.18467 11.0191 4.5 9.36574 4.5 7.4286C4.5 3.85717 7.37636 1.00003 11 1.00003C11.8543 0.997637 12.7006 1.16229 13.4903 1.48451C14.28 1.80673 14.9975 2.28016 15.6016 2.87759C16.2056 3.47501 16.6843 4.18464 17.0101 4.96567C17.3359 5.74669 17.5024 6.58371 17.5 7.4286C17.5 9.29622 16.7864 11.0619 15.5134 12.2505C14.5957 13.1076 13.1666 14.3353 13.1666 15.6429V16.7143" stroke="white" stroke-width="1.5" stroke-linecap="round" stroke-linejoin="round"/>
<path d="M12.4445 21H9.55557" stroke="white" stroke-width="1.5" stroke-linecap="round" stroke-linejoin="round"/>
<path d="M13.1666 18.8569H8.8333" stroke="white" stroke-width="1.5" stroke-linecap="round" stroke-linejoin="round"/>
<path d="M11 16.7143V11" stroke="white" stroke-width="1.5" stroke-linecap="round" stroke-linejoin="round"/>
<path d="M9.18749 10.2856C9.18749 10.2856 10.2133 11.0698 10.9999 11.0698C11.7866 11.0698 12.8124 10.2856 12.8124 10.2856" stroke="white" stroke-width="1.5" stroke-linecap="round" stroke-linejoin="round"/>
</svg>
