<svg width="24" height="24" viewBox="0 0 24 24" fill="none" xmlns="http://www.w3.org/2000/svg">
<path fill-rule="evenodd" clip-rule="evenodd" d="M13.3425 0.619999C12.6335 -0.206666 11.3666 -0.206666 10.6575 0.619999L8.64208 2.97006L5.60708 2.48231C4.53947 2.31073 3.56894 3.13578 3.55033 4.23073L3.49745 7.34348L0.863031 8.94626C-0.063654 9.51005 -0.283656 10.7741 0.396805 11.625L2.33125 14.0439L1.3301 16.9873C0.977924 18.0227 1.6114 19.1343 2.67254 19.3429L5.68917 19.9362L6.78972 22.8429C7.17686 23.8654 8.3674 24.3044 9.3127 23.7733L12 22.2633L14.6873 23.7733C15.6326 24.3044 16.8231 23.8654 17.2102 22.8429L18.3108 19.9362L21.3274 19.3429C22.3885 19.1343 23.0221 18.0227 22.6699 16.9873L21.6687 14.0439L23.6032 11.625C24.2837 10.7741 24.0636 9.51005 23.137 8.94626L20.5025 7.34348L20.4497 4.23073C20.431 3.13578 19.4606 2.31073 18.3929 2.48231L15.3579 2.97006L13.3425 0.619999ZM15.7987 11.0483C16.2612 10.5797 16.2612 9.81992 15.7987 9.35131C15.3362 8.88268 14.5862 8.88268 14.1236 9.35131L10.8155 12.7027L9.87639 11.7513C9.41386 11.2827 8.66386 11.2827 8.2013 11.7513C7.73873 12.2199 7.73873 12.9797 8.2013 13.4483L9.55919 14.8241C10.253 15.5269 11.378 15.5269 12.0718 14.8241L15.7987 11.0483Z" fill="#3364CD"/>
</svg>
